<mxfile host="app.diagrams.net" modified="2020-06-10T02:51:43.557Z" agent="5.0 (Windows)" etag="ywaw92_ft8E6Jbl7prNz" version="13.1.14" type="github">
  <diagram id="vRXvl13DXbEf4g5W7Y7g" name="Page-1">
    <mxGraphModel dx="1707" dy="912" grid="1" gridSize="10" guides="1" tooltips="1" connect="1" arrows="1" fold="1" page="1" pageScale="1" pageWidth="827" pageHeight="1169" math="0" shadow="0">
      <root>
        <mxCell id="0" />
        <mxCell id="1" parent="0" />
        <mxCell id="TuL1lbgmfi1NUTmrnXZB-16" value="消费者" style="ellipse;whiteSpace=wrap;html=1;fontSize=17;fillColor=#dae8fc;strokeColor=#6c8ebf;" parent="1" vertex="1">
          <mxGeometry x="321" y="430" width="120" height="80" as="geometry" />
        </mxCell>
        <mxCell id="TuL1lbgmfi1NUTmrnXZB-17" value="商户" style="ellipse;whiteSpace=wrap;html=1;fontSize=17;fillColor=#dae8fc;strokeColor=#6c8ebf;" parent="1" vertex="1">
          <mxGeometry x="511" y="435" width="120" height="80" as="geometry" />
        </mxCell>
        <mxCell id="TuL1lbgmfi1NUTmrnXZB-18" value="收单系统" style="ellipse;whiteSpace=wrap;html=1;fontSize=17;fillColor=#dae8fc;strokeColor=#6c8ebf;" parent="1" vertex="1">
          <mxGeometry x="941" y="435" width="120" height="80" as="geometry" />
        </mxCell>
        <mxCell id="TuL1lbgmfi1NUTmrnXZB-19" value="TSPG" style="ellipse;whiteSpace=wrap;html=1;fontSize=17;fillColor=#dae8fc;strokeColor=#6c8ebf;" parent="1" vertex="1">
          <mxGeometry x="1121" y="435" width="120" height="80" as="geometry" />
        </mxCell>
        <mxCell id="TuL1lbgmfi1NUTmrnXZB-20" value="POS终端" style="ellipse;whiteSpace=wrap;html=1;fontSize=17;fillColor=#dae8fc;strokeColor=#6c8ebf;" parent="1" vertex="1">
          <mxGeometry x="721" y="435" width="120" height="80" as="geometry" />
        </mxCell>
        <mxCell id="TuL1lbgmfi1NUTmrnXZB-21" value="" style="endArrow=none;dashed=1;html=1;fontSize=17;entryX=0.5;entryY=1;entryDx=0;entryDy=0;" parent="1" target="TuL1lbgmfi1NUTmrnXZB-16" edge="1">
          <mxGeometry width="50" height="50" relative="1" as="geometry">
            <mxPoint x="381" y="560" as="sourcePoint" />
            <mxPoint x="840" y="800" as="targetPoint" />
          </mxGeometry>
        </mxCell>
        <mxCell id="TuL1lbgmfi1NUTmrnXZB-22" value="" style="endArrow=none;dashed=1;html=1;fontSize=17;entryX=0.5;entryY=1;entryDx=0;entryDy=0;" parent="1" source="TuL1lbgmfi1NUTmrnXZB-29" edge="1">
          <mxGeometry width="50" height="50" relative="1" as="geometry">
            <mxPoint x="570.17" y="1265" as="sourcePoint" />
            <mxPoint x="570.17" y="515" as="targetPoint" />
          </mxGeometry>
        </mxCell>
        <mxCell id="TuL1lbgmfi1NUTmrnXZB-23" value="" style="endArrow=none;dashed=1;html=1;fontSize=17;entryX=0.5;entryY=1;entryDx=0;entryDy=0;" parent="1" source="TuL1lbgmfi1NUTmrnXZB-33" edge="1">
          <mxGeometry width="50" height="50" relative="1" as="geometry">
            <mxPoint x="780.1700000000001" y="1265" as="sourcePoint" />
            <mxPoint x="780.1700000000001" y="515" as="targetPoint" />
          </mxGeometry>
        </mxCell>
        <mxCell id="TuL1lbgmfi1NUTmrnXZB-24" value="" style="endArrow=none;dashed=1;html=1;fontSize=17;entryX=0.5;entryY=1;entryDx=0;entryDy=0;" parent="1" source="TuL1lbgmfi1NUTmrnXZB-78" edge="1">
          <mxGeometry width="50" height="50" relative="1" as="geometry">
            <mxPoint x="1000" y="860" as="sourcePoint" />
            <mxPoint x="1000.1700000000001" y="515" as="targetPoint" />
          </mxGeometry>
        </mxCell>
        <mxCell id="TuL1lbgmfi1NUTmrnXZB-25" value="" style="endArrow=none;dashed=1;html=1;fontSize=17;entryX=0.5;entryY=1;entryDx=0;entryDy=0;" parent="1" source="TuL1lbgmfi1NUTmrnXZB-44" edge="1">
          <mxGeometry width="50" height="50" relative="1" as="geometry">
            <mxPoint x="1190" y="1265" as="sourcePoint" />
            <mxPoint x="1190" y="515" as="targetPoint" />
          </mxGeometry>
        </mxCell>
        <mxCell id="TuL1lbgmfi1NUTmrnXZB-28" value="" style="endArrow=none;dashed=1;html=1;fontSize=17;entryX=0.5;entryY=1;entryDx=0;entryDy=0;" parent="1" edge="1">
          <mxGeometry width="50" height="50" relative="1" as="geometry">
            <mxPoint x="381" y="1130" as="sourcePoint" />
            <mxPoint x="381" y="560" as="targetPoint" />
          </mxGeometry>
        </mxCell>
        <mxCell id="TuL1lbgmfi1NUTmrnXZB-29" value="" style="rounded=0;whiteSpace=wrap;html=1;fontSize=17;fillColor=#d5e8d4;strokeColor=#82b366;" parent="1" vertex="1">
          <mxGeometry x="561" y="560" width="20" height="60" as="geometry" />
        </mxCell>
        <mxCell id="TuL1lbgmfi1NUTmrnXZB-30" value="" style="endArrow=none;dashed=1;html=1;fontSize=17;entryX=0.5;entryY=1;entryDx=0;entryDy=0;" parent="1" target="TuL1lbgmfi1NUTmrnXZB-29" edge="1">
          <mxGeometry width="50" height="50" relative="1" as="geometry">
            <mxPoint x="571" y="1720" as="sourcePoint" />
            <mxPoint x="570.1700000000001" y="455" as="targetPoint" />
          </mxGeometry>
        </mxCell>
        <mxCell id="TuL1lbgmfi1NUTmrnXZB-34" value="" style="endArrow=classic;html=1;fontSize=17;exitX=0.75;exitY=1;exitDx=0;exitDy=0;entryX=0;entryY=0;entryDx=0;entryDy=0;" parent="1" source="TuL1lbgmfi1NUTmrnXZB-29" target="TuL1lbgmfi1NUTmrnXZB-33" edge="1">
          <mxGeometry width="50" height="50" relative="1" as="geometry">
            <mxPoint x="600" y="640" as="sourcePoint" />
            <mxPoint x="650" y="590" as="targetPoint" />
          </mxGeometry>
        </mxCell>
        <mxCell id="TuL1lbgmfi1NUTmrnXZB-33" value="" style="rounded=0;whiteSpace=wrap;html=1;fontSize=17;fillColor=#d5e8d4;strokeColor=#82b366;" parent="1" vertex="1">
          <mxGeometry x="770" y="620" width="20" height="90" as="geometry" />
        </mxCell>
        <mxCell id="TuL1lbgmfi1NUTmrnXZB-35" value="" style="endArrow=none;dashed=1;html=1;fontSize=17;entryX=0.5;entryY=1;entryDx=0;entryDy=0;" parent="1" source="bSawAatYc47EJDsS8Q1i-9" target="TuL1lbgmfi1NUTmrnXZB-33" edge="1">
          <mxGeometry width="50" height="50" relative="1" as="geometry">
            <mxPoint x="780" y="1650" as="sourcePoint" />
            <mxPoint x="780.1700000000001" y="455" as="targetPoint" />
          </mxGeometry>
        </mxCell>
        <mxCell id="TuL1lbgmfi1NUTmrnXZB-36" value="&lt;div&gt;1、输入金额&lt;/div&gt;" style="text;html=1;align=center;verticalAlign=middle;resizable=0;points=[];autosize=1;fontSize=17;" parent="1" vertex="1">
          <mxGeometry x="611" y="584" width="110" height="30" as="geometry" />
        </mxCell>
        <mxCell id="TuL1lbgmfi1NUTmrnXZB-39" value="" style="rounded=0;whiteSpace=wrap;html=1;fontSize=17;fillColor=#d5e8d4;strokeColor=#82b366;" parent="1" vertex="1">
          <mxGeometry x="770" y="620" width="20" height="90" as="geometry" />
        </mxCell>
        <mxCell id="TuL1lbgmfi1NUTmrnXZB-41" value="" style="endArrow=none;dashed=1;html=1;fontSize=17;" parent="1" edge="1" target="TuL1lbgmfi1NUTmrnXZB-78" source="bSawAatYc47EJDsS8Q1i-22">
          <mxGeometry width="50" height="50" relative="1" as="geometry">
            <mxPoint x="1001.0638297872342" y="1240.0000000000002" as="sourcePoint" />
            <mxPoint x="1002" y="1019.9999999999998" as="targetPoint" />
          </mxGeometry>
        </mxCell>
        <mxCell id="TuL1lbgmfi1NUTmrnXZB-44" value="" style="rounded=0;whiteSpace=wrap;html=1;fontSize=17;fillColor=#d5e8d4;strokeColor=#82b366;" parent="1" vertex="1">
          <mxGeometry x="1180" y="1189" width="20" height="130" as="geometry" />
        </mxCell>
        <mxCell id="TuL1lbgmfi1NUTmrnXZB-45" value="" style="endArrow=none;dashed=1;html=1;fontSize=17;entryX=0.5;entryY=1;entryDx=0;entryDy=0;" parent="1" target="TuL1lbgmfi1NUTmrnXZB-44" edge="1">
          <mxGeometry width="50" height="50" relative="1" as="geometry">
            <mxPoint x="1190" y="1720" as="sourcePoint" />
            <mxPoint x="1189" y="705" as="targetPoint" />
          </mxGeometry>
        </mxCell>
        <mxCell id="TuL1lbgmfi1NUTmrnXZB-46" value="&lt;div&gt;2、调用网关下单&lt;/div&gt;&lt;div&gt;接口&lt;br&gt;&lt;/div&gt;" style="text;html=1;align=center;verticalAlign=middle;resizable=0;points=[];autosize=1;fontSize=17;labelBackgroundColor=none;" parent="1" vertex="1">
          <mxGeometry x="811" y="650" width="140" height="50" as="geometry" />
        </mxCell>
        <mxCell id="TuL1lbgmfi1NUTmrnXZB-49" value="" style="curved=1;endArrow=classic;html=1;fontSize=17;exitX=1;exitY=0;exitDx=0;exitDy=0;entryX=1;entryY=1;entryDx=0;entryDy=0;" parent="1" source="TuL1lbgmfi1NUTmrnXZB-44" target="TuL1lbgmfi1NUTmrnXZB-44" edge="1">
          <mxGeometry width="50" height="50" relative="1" as="geometry">
            <mxPoint x="1250" y="1249" as="sourcePoint" />
            <mxPoint x="1300" y="1199" as="targetPoint" />
            <Array as="points">
              <mxPoint x="1300" y="1249" />
            </Array>
          </mxGeometry>
        </mxCell>
        <mxCell id="TuL1lbgmfi1NUTmrnXZB-50" value="&lt;div&gt;11、授权认证&lt;/div&gt;" style="text;html=1;align=center;verticalAlign=middle;resizable=0;points=[];autosize=1;fontSize=17;labelBackgroundColor=#ffffff;" parent="1" vertex="1">
          <mxGeometry x="1255" y="1239" width="120" height="30" as="geometry" />
        </mxCell>
        <mxCell id="TuL1lbgmfi1NUTmrnXZB-55" value="" style="endArrow=none;dashed=1;html=1;fontSize=17;entryX=0.5;entryY=1;entryDx=0;entryDy=0;" parent="1" source="TuL1lbgmfi1NUTmrnXZB-70" target="bSawAatYc47EJDsS8Q1i-38" edge="1">
          <mxGeometry width="50" height="50" relative="1" as="geometry">
            <mxPoint x="781" y="1720" as="sourcePoint" />
            <mxPoint x="780" y="1330" as="targetPoint" />
          </mxGeometry>
        </mxCell>
        <mxCell id="TuL1lbgmfi1NUTmrnXZB-59" value="" style="endArrow=none;dashed=1;html=1;fontSize=17;entryX=0.5;entryY=1;entryDx=0;entryDy=0;" parent="1" edge="1">
          <mxGeometry width="50" height="50" relative="1" as="geometry">
            <mxPoint x="999" y="1720" as="sourcePoint" />
            <mxPoint x="999" y="1400" as="targetPoint" />
          </mxGeometry>
        </mxCell>
        <mxCell id="TuL1lbgmfi1NUTmrnXZB-60" value="" style="rounded=0;whiteSpace=wrap;html=1;fontSize=17;fillColor=#d5e8d4;strokeColor=#82b366;" parent="1" vertex="1">
          <mxGeometry x="1179" y="1400" width="20" height="70" as="geometry" />
        </mxCell>
        <mxCell id="TuL1lbgmfi1NUTmrnXZB-63" value="" style="endArrow=classic;html=1;fontSize=17;exitX=1;exitY=1;exitDx=0;exitDy=0;entryX=0;entryY=0;entryDx=0;entryDy=0;" parent="1" target="TuL1lbgmfi1NUTmrnXZB-60" edge="1">
          <mxGeometry width="50" height="50" relative="1" as="geometry">
            <mxPoint x="1009" y="1400" as="sourcePoint" />
            <mxPoint x="1119" y="1410" as="targetPoint" />
          </mxGeometry>
        </mxCell>
        <mxCell id="TuL1lbgmfi1NUTmrnXZB-64" value="&lt;div&gt;12、调用Other API&lt;/div&gt;&lt;div&gt;进行请款&lt;br&gt;&lt;/div&gt;" style="text;html=1;align=center;verticalAlign=middle;resizable=0;points=[];autosize=1;fontSize=17;labelBackgroundColor=none;" parent="1" vertex="1">
          <mxGeometry x="1011" y="1349" width="160" height="50" as="geometry" />
        </mxCell>
        <mxCell id="TuL1lbgmfi1NUTmrnXZB-65" value="" style="curved=1;endArrow=classic;html=1;fontSize=17;exitX=1;exitY=0;exitDx=0;exitDy=0;entryX=1;entryY=1;entryDx=0;entryDy=0;" parent="1" source="TuL1lbgmfi1NUTmrnXZB-60" target="TuL1lbgmfi1NUTmrnXZB-60" edge="1">
          <mxGeometry width="50" height="50" relative="1" as="geometry">
            <mxPoint x="1289" y="1480" as="sourcePoint" />
            <mxPoint x="1339" y="1430" as="targetPoint" />
            <Array as="points">
              <mxPoint x="1319" y="1450" />
            </Array>
          </mxGeometry>
        </mxCell>
        <mxCell id="TuL1lbgmfi1NUTmrnXZB-66" value="&lt;div&gt;13、通过请款&lt;/div&gt;" style="text;html=1;align=center;verticalAlign=middle;resizable=0;points=[];autosize=1;fontSize=17;labelBackgroundColor=#ffffff;" parent="1" vertex="1">
          <mxGeometry x="1269" y="1430" width="120" height="30" as="geometry" />
        </mxCell>
        <mxCell id="TuL1lbgmfi1NUTmrnXZB-72" value="" style="endArrow=classic;html=1;fontSize=17;exitX=0;exitY=1;exitDx=0;exitDy=0;entryX=1;entryY=0;entryDx=0;entryDy=0;" parent="1" source="TuL1lbgmfi1NUTmrnXZB-60" target="TuL1lbgmfi1NUTmrnXZB-69" edge="1">
          <mxGeometry width="50" height="50" relative="1" as="geometry">
            <mxPoint x="1119" y="1540" as="sourcePoint" />
            <mxPoint x="1169" y="1490" as="targetPoint" />
          </mxGeometry>
        </mxCell>
        <mxCell id="TuL1lbgmfi1NUTmrnXZB-69" value="" style="rounded=0;whiteSpace=wrap;html=1;fontSize=17;fillColor=#d5e8d4;strokeColor=#82b366;" parent="1" vertex="1">
          <mxGeometry x="989" y="1472" width="20" height="70" as="geometry" />
        </mxCell>
        <mxCell id="TuL1lbgmfi1NUTmrnXZB-75" value="&lt;div&gt;14、通过请款&lt;/div&gt;" style="text;html=1;align=center;verticalAlign=middle;resizable=0;points=[];autosize=1;fontSize=17;labelBackgroundColor=#ffffff;" parent="1" vertex="1">
          <mxGeometry x="1024" y="1480" width="120" height="30" as="geometry" />
        </mxCell>
        <mxCell id="TuL1lbgmfi1NUTmrnXZB-76" value="" style="endArrow=classic;html=1;fontSize=17;exitX=0;exitY=1;exitDx=0;exitDy=0;entryX=1;entryY=0;entryDx=0;entryDy=0;" parent="1" source="TuL1lbgmfi1NUTmrnXZB-69" target="TuL1lbgmfi1NUTmrnXZB-70" edge="1">
          <mxGeometry width="50" height="50" relative="1" as="geometry">
            <mxPoint x="900" y="1520" as="sourcePoint" />
            <mxPoint x="950" y="1470" as="targetPoint" />
          </mxGeometry>
        </mxCell>
        <mxCell id="TuL1lbgmfi1NUTmrnXZB-78" value="" style="rounded=0;whiteSpace=wrap;html=1;fontSize=17;fillColor=#d5e8d4;strokeColor=#82b366;" parent="1" vertex="1">
          <mxGeometry x="991" y="710" width="20" height="190" as="geometry" />
        </mxCell>
        <mxCell id="TuL1lbgmfi1NUTmrnXZB-79" value="" style="endArrow=none;dashed=1;html=1;fontSize=17;entryX=0.5;entryY=1;entryDx=0;entryDy=0;" parent="1" edge="1">
          <mxGeometry width="50" height="50" relative="1" as="geometry">
            <mxPoint x="1000" y="1189.0000000000002" as="sourcePoint" />
            <mxPoint x="1001" y="1188.9999999999998" as="targetPoint" />
          </mxGeometry>
        </mxCell>
        <mxCell id="TuL1lbgmfi1NUTmrnXZB-80" value="" style="endArrow=classic;html=1;fontSize=17;exitX=1;exitY=1;exitDx=0;exitDy=0;entryX=0;entryY=0;entryDx=0;entryDy=0;" parent="1" source="TuL1lbgmfi1NUTmrnXZB-39" target="TuL1lbgmfi1NUTmrnXZB-78" edge="1">
          <mxGeometry width="50" height="50" relative="1" as="geometry">
            <mxPoint x="720" y="840" as="sourcePoint" />
            <mxPoint x="770" y="790" as="targetPoint" />
          </mxGeometry>
        </mxCell>
        <mxCell id="TuL1lbgmfi1NUTmrnXZB-81" value="" style="endArrow=classic;html=1;fontSize=17;exitX=1;exitY=1;exitDx=0;exitDy=0;entryX=0;entryY=0;entryDx=0;entryDy=0;" parent="1" target="TuL1lbgmfi1NUTmrnXZB-44" edge="1">
          <mxGeometry width="50" height="50" relative="1" as="geometry">
            <mxPoint x="1011" y="1188.9999999999998" as="sourcePoint" />
            <mxPoint x="750" y="1239" as="targetPoint" />
          </mxGeometry>
        </mxCell>
        <mxCell id="TuL1lbgmfi1NUTmrnXZB-83" value="" style="rounded=0;whiteSpace=wrap;html=1;fontSize=17;fillColor=#d5e8d4;strokeColor=#82b366;" parent="1" vertex="1">
          <mxGeometry x="989" y="1319" width="20" height="80" as="geometry" />
        </mxCell>
        <mxCell id="TuL1lbgmfi1NUTmrnXZB-84" value="" style="endArrow=classic;html=1;fontSize=17;exitX=0;exitY=1;exitDx=0;exitDy=0;entryX=1;entryY=0;entryDx=0;entryDy=0;" parent="1" source="TuL1lbgmfi1NUTmrnXZB-44" target="TuL1lbgmfi1NUTmrnXZB-83" edge="1">
          <mxGeometry width="50" height="50" relative="1" as="geometry">
            <mxPoint x="1110" y="1309" as="sourcePoint" />
            <mxPoint x="1160" y="1259" as="targetPoint" />
          </mxGeometry>
        </mxCell>
        <mxCell id="TuL1lbgmfi1NUTmrnXZB-85" value="&lt;div&gt;10、调用DirectAuth API&lt;/div&gt;&lt;div&gt;请求授权&lt;br&gt;&lt;/div&gt;" style="text;html=1;align=center;verticalAlign=middle;resizable=0;points=[];autosize=1;fontSize=17;labelBackgroundColor=none;" parent="1" vertex="1">
          <mxGeometry x="1019" y="1129" width="200" height="50" as="geometry" />
        </mxCell>
        <mxCell id="TuL1lbgmfi1NUTmrnXZB-86" value="&lt;div&gt;11、授权通过&lt;/div&gt;" style="text;html=1;align=center;verticalAlign=middle;resizable=0;points=[];autosize=1;fontSize=17;labelBackgroundColor=none;" parent="1" vertex="1">
          <mxGeometry x="1034" y="1279" width="120" height="30" as="geometry" />
        </mxCell>
        <mxCell id="bSawAatYc47EJDsS8Q1i-5" value="" style="curved=1;endArrow=classic;html=1;fontSize=17;exitX=1;exitY=0;exitDx=0;exitDy=0;entryX=1;entryY=0.5;entryDx=0;entryDy=0;" edge="1" parent="1" source="TuL1lbgmfi1NUTmrnXZB-78" target="TuL1lbgmfi1NUTmrnXZB-78">
          <mxGeometry width="50" height="50" relative="1" as="geometry">
            <mxPoint x="1050" y="790" as="sourcePoint" />
            <mxPoint x="1100" y="740" as="targetPoint" />
            <Array as="points">
              <mxPoint x="1060" y="740" />
              <mxPoint x="1070" y="780" />
            </Array>
          </mxGeometry>
        </mxCell>
        <mxCell id="bSawAatYc47EJDsS8Q1i-6" value="&lt;div&gt;3、授权验证&lt;/div&gt;" style="text;html=1;align=center;verticalAlign=middle;resizable=0;points=[];autosize=1;fontSize=17;labelBackgroundColor=none;" vertex="1" parent="1">
          <mxGeometry x="1036" y="750" width="110" height="30" as="geometry" />
        </mxCell>
        <mxCell id="bSawAatYc47EJDsS8Q1i-7" value="" style="curved=1;endArrow=classic;html=1;fontSize=17;exitX=1;exitY=0.5;exitDx=0;exitDy=0;entryX=1;entryY=1;entryDx=0;entryDy=0;" edge="1" parent="1" source="TuL1lbgmfi1NUTmrnXZB-78" target="TuL1lbgmfi1NUTmrnXZB-78">
          <mxGeometry width="50" height="50" relative="1" as="geometry">
            <mxPoint x="1011" y="710" as="sourcePoint" />
            <mxPoint x="1011" y="804.9999999999998" as="targetPoint" />
            <Array as="points">
              <mxPoint x="1060" y="830" />
              <mxPoint x="1070" y="870" />
            </Array>
          </mxGeometry>
        </mxCell>
        <mxCell id="bSawAatYc47EJDsS8Q1i-8" value="&lt;div&gt;4、生成订单&lt;/div&gt;" style="text;html=1;align=center;verticalAlign=middle;resizable=0;points=[];autosize=1;fontSize=17;labelBackgroundColor=none;" vertex="1" parent="1">
          <mxGeometry x="1036" y="840" width="110" height="30" as="geometry" />
        </mxCell>
        <mxCell id="bSawAatYc47EJDsS8Q1i-9" value="" style="rounded=0;whiteSpace=wrap;html=1;fontSize=17;fillColor=#d5e8d4;strokeColor=#82b366;" vertex="1" parent="1">
          <mxGeometry x="772" y="900" width="20" height="90" as="geometry" />
        </mxCell>
        <mxCell id="bSawAatYc47EJDsS8Q1i-11" value="" style="endArrow=classic;html=1;fontSize=17;exitX=0;exitY=1;exitDx=0;exitDy=0;entryX=1;entryY=0;entryDx=0;entryDy=0;" edge="1" parent="1" source="TuL1lbgmfi1NUTmrnXZB-78" target="bSawAatYc47EJDsS8Q1i-9">
          <mxGeometry width="50" height="50" relative="1" as="geometry">
            <mxPoint x="810" y="910" as="sourcePoint" />
            <mxPoint x="860" y="860" as="targetPoint" />
          </mxGeometry>
        </mxCell>
        <mxCell id="bSawAatYc47EJDsS8Q1i-12" value="5、生成订单页面" style="text;html=1;align=center;verticalAlign=middle;resizable=0;points=[];autosize=1;fontSize=17;labelBackgroundColor=none;" vertex="1" parent="1">
          <mxGeometry x="811" y="870" width="140" height="30" as="geometry" />
        </mxCell>
        <mxCell id="bSawAatYc47EJDsS8Q1i-14" value="" style="endArrow=none;dashed=1;html=1;fontSize=17;entryX=0.5;entryY=1;entryDx=0;entryDy=0;" edge="1" parent="1" source="bSawAatYc47EJDsS8Q1i-33">
          <mxGeometry width="50" height="50" relative="1" as="geometry">
            <mxPoint x="381" y="1710" as="sourcePoint" />
            <mxPoint x="381" y="1020.0000000000002" as="targetPoint" />
          </mxGeometry>
        </mxCell>
        <mxCell id="bSawAatYc47EJDsS8Q1i-16" value="" style="endArrow=none;dashed=1;html=1;fontSize=17;" edge="1" parent="1" source="bSawAatYc47EJDsS8Q1i-38" target="bSawAatYc47EJDsS8Q1i-9">
          <mxGeometry width="50" height="50" relative="1" as="geometry">
            <mxPoint x="780" y="1430" as="sourcePoint" />
            <mxPoint x="782" y="1160" as="targetPoint" />
          </mxGeometry>
        </mxCell>
        <mxCell id="bSawAatYc47EJDsS8Q1i-22" value="" style="rounded=0;whiteSpace=wrap;html=1;fontSize=17;fillColor=#d5e8d4;strokeColor=#82b366;" vertex="1" parent="1">
          <mxGeometry x="990" y="1139" width="20" height="50" as="geometry" />
        </mxCell>
        <mxCell id="bSawAatYc47EJDsS8Q1i-23" value="" style="endArrow=none;dashed=1;html=1;fontSize=17;exitX=0.5;exitY=0;exitDx=0;exitDy=0;entryX=0.5;entryY=1;entryDx=0;entryDy=0;" edge="1" parent="1" source="TuL1lbgmfi1NUTmrnXZB-83" target="bSawAatYc47EJDsS8Q1i-22">
          <mxGeometry width="50" height="50" relative="1" as="geometry">
            <mxPoint x="1011.0638297872342" y="1309" as="sourcePoint" />
            <mxPoint x="1009.3558327219371" y="1189" as="targetPoint" />
          </mxGeometry>
        </mxCell>
        <mxCell id="bSawAatYc47EJDsS8Q1i-24" value="" style="endArrow=classic;html=1;fontSize=17;entryX=0;entryY=0;entryDx=0;entryDy=0;" edge="1" parent="1" target="bSawAatYc47EJDsS8Q1i-22">
          <mxGeometry width="50" height="50" relative="1" as="geometry">
            <mxPoint x="790" y="1140" as="sourcePoint" />
            <mxPoint x="551" y="1269" as="targetPoint" />
          </mxGeometry>
        </mxCell>
        <mxCell id="bSawAatYc47EJDsS8Q1i-25" value="9、传递信用卡信息" style="text;html=1;align=center;verticalAlign=middle;resizable=0;points=[];autosize=1;fontSize=17;labelBackgroundColor=none;" vertex="1" parent="1">
          <mxGeometry x="804" y="1159" width="160" height="30" as="geometry" />
        </mxCell>
        <mxCell id="bSawAatYc47EJDsS8Q1i-27" value="7、刷卡" style="text;html=1;align=center;verticalAlign=middle;resizable=0;points=[];autosize=1;fontSize=17;labelBackgroundColor=none;" vertex="1" parent="1">
          <mxGeometry x="481" y="1030" width="80" height="30" as="geometry" />
        </mxCell>
        <mxCell id="bSawAatYc47EJDsS8Q1i-28" value="" style="curved=1;endArrow=classic;html=1;fontSize=17;exitX=0.75;exitY=0;exitDx=0;exitDy=0;entryX=0.75;entryY=1;entryDx=0;entryDy=0;" edge="1" parent="1" source="bSawAatYc47EJDsS8Q1i-9" target="bSawAatYc47EJDsS8Q1i-9">
          <mxGeometry width="50" height="50" relative="1" as="geometry">
            <mxPoint x="460" y="970" as="sourcePoint" />
            <mxPoint x="510" y="920" as="targetPoint" />
            <Array as="points">
              <mxPoint x="870" y="950" />
            </Array>
          </mxGeometry>
        </mxCell>
        <mxCell id="bSawAatYc47EJDsS8Q1i-30" value="6、展示待付款页面" style="text;html=1;align=center;verticalAlign=middle;resizable=0;points=[];autosize=1;fontSize=17;labelBackgroundColor=none;" vertex="1" parent="1">
          <mxGeometry x="840" y="950" width="160" height="30" as="geometry" />
        </mxCell>
        <mxCell id="bSawAatYc47EJDsS8Q1i-33" value="" style="rounded=0;whiteSpace=wrap;html=1;fontSize=17;fillColor=#d5e8d4;strokeColor=#82b366;" vertex="1" parent="1">
          <mxGeometry x="371" y="1010" width="20" height="50" as="geometry" />
        </mxCell>
        <mxCell id="bSawAatYc47EJDsS8Q1i-34" value="" style="endArrow=none;dashed=1;html=1;fontSize=17;entryX=0.5;entryY=1;entryDx=0;entryDy=0;" edge="1" parent="1" target="bSawAatYc47EJDsS8Q1i-33">
          <mxGeometry width="50" height="50" relative="1" as="geometry">
            <mxPoint x="381" y="1710" as="sourcePoint" />
            <mxPoint x="381" y="1020.0000000000002" as="targetPoint" />
          </mxGeometry>
        </mxCell>
        <mxCell id="bSawAatYc47EJDsS8Q1i-37" value="" style="endArrow=classic;html=1;fontSize=17;exitX=1;exitY=1;exitDx=0;exitDy=0;entryX=0;entryY=0;entryDx=0;entryDy=0;" edge="1" parent="1" source="bSawAatYc47EJDsS8Q1i-33" target="bSawAatYc47EJDsS8Q1i-38">
          <mxGeometry width="50" height="50" relative="1" as="geometry">
            <mxPoint x="330" y="1150" as="sourcePoint" />
            <mxPoint x="380" y="1100" as="targetPoint" />
          </mxGeometry>
        </mxCell>
        <mxCell id="bSawAatYc47EJDsS8Q1i-38" value="" style="rounded=0;whiteSpace=wrap;html=1;fontSize=17;fillColor=#d5e8d4;strokeColor=#82b366;" vertex="1" parent="1">
          <mxGeometry x="771" y="1060" width="20" height="80" as="geometry" />
        </mxCell>
        <mxCell id="bSawAatYc47EJDsS8Q1i-41" value="" style="curved=1;endArrow=classic;html=1;fontSize=17;exitX=0.95;exitY=0.125;exitDx=0;exitDy=0;exitPerimeter=0;" edge="1" parent="1" source="bSawAatYc47EJDsS8Q1i-38">
          <mxGeometry width="50" height="50" relative="1" as="geometry">
            <mxPoint x="590" y="1170" as="sourcePoint" />
            <mxPoint x="786" y="1140" as="targetPoint" />
            <Array as="points">
              <mxPoint x="840" y="1090" />
              <mxPoint x="840" y="1110" />
            </Array>
          </mxGeometry>
        </mxCell>
        <mxCell id="bSawAatYc47EJDsS8Q1i-43" value="8、读取卡片消息" style="text;html=1;align=center;verticalAlign=middle;resizable=0;points=[];autosize=1;fontSize=17;labelBackgroundColor=none;" vertex="1" parent="1">
          <mxGeometry x="827" y="1070" width="140" height="30" as="geometry" />
        </mxCell>
        <mxCell id="TuL1lbgmfi1NUTmrnXZB-70" value="" style="rounded=0;whiteSpace=wrap;html=1;fontSize=17;fillColor=#d5e8d4;strokeColor=#82b366;" parent="1" vertex="1">
          <mxGeometry x="770" y="1542" width="20" height="90" as="geometry" />
        </mxCell>
        <mxCell id="bSawAatYc47EJDsS8Q1i-45" value="" style="endArrow=none;dashed=1;html=1;fontSize=17;entryX=0.5;entryY=1;entryDx=0;entryDy=0;" edge="1" parent="1" target="TuL1lbgmfi1NUTmrnXZB-70">
          <mxGeometry width="50" height="50" relative="1" as="geometry">
            <mxPoint x="781" y="1720" as="sourcePoint" />
            <mxPoint x="781" y="1140" as="targetPoint" />
          </mxGeometry>
        </mxCell>
        <mxCell id="bSawAatYc47EJDsS8Q1i-47" value="&lt;div&gt;15、通过请款&lt;/div&gt;" style="text;html=1;align=center;verticalAlign=middle;resizable=0;points=[];autosize=1;fontSize=17;labelBackgroundColor=#ffffff;" vertex="1" parent="1">
          <mxGeometry x="827" y="1510" width="120" height="30" as="geometry" />
        </mxCell>
        <mxCell id="bSawAatYc47EJDsS8Q1i-48" value="" style="curved=1;endArrow=classic;html=1;fontSize=17;exitX=1;exitY=0;exitDx=0;exitDy=0;entryX=1;entryY=1;entryDx=0;entryDy=0;" edge="1" parent="1" source="TuL1lbgmfi1NUTmrnXZB-70" target="TuL1lbgmfi1NUTmrnXZB-70">
          <mxGeometry width="50" height="50" relative="1" as="geometry">
            <mxPoint x="700" y="1570" as="sourcePoint" />
            <mxPoint x="750" y="1520" as="targetPoint" />
            <Array as="points">
              <mxPoint x="870" y="1587" />
            </Array>
          </mxGeometry>
        </mxCell>
        <mxCell id="bSawAatYc47EJDsS8Q1i-49" value="&lt;div&gt;16、展示交易成功&lt;/div&gt;" style="text;html=1;align=center;verticalAlign=middle;resizable=0;points=[];autosize=1;fontSize=17;labelBackgroundColor=#ffffff;" vertex="1" parent="1">
          <mxGeometry x="812" y="1632" width="150" height="30" as="geometry" />
        </mxCell>
      </root>
    </mxGraphModel>
  </diagram>
</mxfile>
